<?xml version="1.0" standalone="no"?>
<!DOCTYPE svg PUBLIC "-//W3C//DTD SVG 20010904//EN"
 "http://www.w3.org/TR/2001/REC-SVG-20010904/DTD/svg10.dtd">
<svg version="1.0" xmlns="http://www.w3.org/2000/svg"
 width="426.000000pt" height="426.000000pt" viewBox="0 0 426.000000 426.000000"
 preserveAspectRatio="xMidYMid meet">
<metadata>
Created by potrace 1.14, written by Peter Selinger 2001-2017
</metadata>
<g transform="translate(0.000000,426.000000) scale(0.100000,-0.100000)"
fill="#000000" stroke="none">
<path d="M2397 3943 c-3 -5 -8 -32 -12 -62 -4 -30 -9 -63 -11 -75 -2 -12 -13
-79 -24 -151 -12 -71 -23 -141 -25 -155 -2 -14 -7 -43 -10 -65 -3 -22 -13 -78
-21 -125 -22 -131 -29 -120 85 -120 l99 0 -8 -37 c-5 -21 -11 -66 -15 -100
l-7 -63 370 0 371 0 -5 -22 c-4 -22 -9 -51 -19 -113 -3 -16 -8 -50 -11 -75 -3
-25 -8 -48 -11 -52 -2 -5 -46 -8 -98 -8 -92 0 -94 0 -89 23 2 12 6 36 8 52 2
17 7 51 11 78 l7 47 -307 0 -306 0 6 53 c4 28 10 71 15 95 l7 42 -102 0 -102
0 13 73 c8 39 16 84 19 100 l5 27 -637 -2 -636 -3 -4 -35 c-2 -19 -12 -87 -23
-150 -10 -63 -22 -135 -25 -160 -3 -25 -10 -69 -15 -99 -6 -30 -10 -56 -10
-58 0 -2 -114 -3 -254 -3 -286 0 -259 8 -271 -80 -6 -47 -41 -268 -75 -475
-11 -66 -22 -136 -24 -155 -3 -20 -7 -47 -10 -60 -3 -14 -8 -47 -12 -75 -7
-56 -8 -61 -19 -130 -4 -27 -9 -59 -12 -70 -2 -11 -6 -38 -9 -60 -3 -22 -7
-51 -10 -65 -2 -14 -7 -42 -10 -62 l-7 -38 101 0 101 0 -5 -27 c-3 -16 -9 -52
-14 -82 -6 -30 -10 -62 -10 -71 0 -14 42 -15 410 -15 l410 0 0 -22 c0 -56 32
-53 -526 -53 -483 0 -514 -1 -515 -17 0 -10 -2 -25 -4 -34 -1 -8 -6 -42 -10
-74 -3 -33 -8 -62 -10 -65 -1 -3 -6 -27 -9 -55 -4 -27 -9 -57 -11 -65 -2 -8
-6 -35 -9 -60 -5 -40 -33 -223 -52 -337 l-7 -43 102 0 c100 0 101 0 96 -22 -6
-30 -13 -72 -21 -131 l-7 -47 634 2 634 3 7 40 c3 22 9 62 13 89 4 27 8 57 10
67 2 9 7 39 11 66 3 26 8 56 10 66 2 10 8 54 15 98 l11 79 259 0 c240 0 259 1
260 18 0 9 2 26 4 37 3 11 7 40 10 65 3 25 11 79 18 120 12 74 13 75 45 78 23
2 31 0 28 -10 -3 -7 -7 -33 -10 -58 -3 -25 -9 -64 -12 -87 l-6 -43 376 0 c207
0 376 3 376 8 0 10 19 131 26 164 l6 28 95 0 95 0 -6 -37 c-3 -21 -8 -51 -11
-68 -3 -16 -7 -45 -10 -63 l-6 -32 376 0 c292 0 376 3 379 13 2 6 12 64 21
127 22 144 22 143 34 215 6 33 13 80 16 105 4 25 15 99 26 165 21 127 22 133
38 235 6 36 20 124 31 195 12 72 23 144 26 160 2 17 7 41 9 55 3 14 7 43 10
65 3 22 7 51 10 65 2 13 7 42 10 65 8 54 14 90 25 155 5 30 12 73 15 95 3 22
10 63 15 90 5 28 12 68 15 90 5 40 32 208 40 255 8 44 34 214 40 255 3 22 10
65 15 95 5 30 12 71 15 90 5 31 11 70 31 188 l5 32 -100 0 -100 0 4 30 c3 17
7 45 10 63 3 17 8 49 11 70 l6 37 -375 0 -375 0 -11 -62 c-15 -82 -19 -110
-20 -125 -1 -10 -27 -13 -96 -13 -69 0 -95 3 -95 13 0 15 18 134 25 165 l5 22
-374 0 c-206 0 -377 -3 -379 -7z m608 -135 c-6 -30 -42 -250 -50 -308 -4 -25
-12 -76 -18 -115 l-12 -70 -258 -3 -257 -2 5 22 c2 13 12 66 20 118 8 52 17
106 20 120 2 14 7 41 9 60 2 20 7 47 10 60 3 14 8 47 11 74 3 27 8 53 11 58 3
4 120 8 260 8 l254 0 -5 -22z m945 15 c0 -5 -5 -35 -10 -68 -9 -54 -27 -169
-50 -315 -10 -68 -38 -243 -46 -290 -25 -154 -64 -402 -69 -435 -3 -22 -8 -51
-10 -65 -3 -14 -7 -43 -10 -65 -3 -22 -8 -51 -11 -65 -2 -14 -6 -36 -9 -50 -3
-14 -7 -45 -10 -70 -3 -25 -10 -70 -15 -100 -19 -107 -49 -296 -55 -345 -4
-27 -8 -57 -10 -65 -4 -13 -41 -246 -60 -375 -3 -22 -10 -65 -15 -95 -6 -30
-13 -75 -16 -100 -3 -25 -9 -48 -13 -53 -4 -4 -120 -6 -257 -5 -242 3 -249 4
-247 23 6 47 14 101 18 115 2 8 6 35 9 60 3 25 8 54 10 65 2 11 9 56 16 100 7
44 13 87 15 95 2 8 8 50 15 93 6 43 13 88 15 100 14 83 35 208 40 242 3 22 10
65 15 95 5 30 11 71 14 90 3 19 14 91 25 160 28 181 30 192 35 220 6 34 17 99
22 135 2 17 6 46 10 65 3 19 7 44 8 55 2 11 7 40 10 65 4 25 11 70 16 100 15
91 41 251 55 340 24 161 47 300 51 323 l6 27 254 0 c140 0 254 -3 254 -7z
m-1864 -665 c-3 -18 -19 -118 -37 -223 -30 -183 -35 -215 -38 -242 -1 -10
-111 -13 -516 -13 -283 0 -515 -3 -516 -7 0 -5 -2 -19 -5 -33 -6 -36 -31 -197
-40 -250 -3 -25 -8 -52 -9 -60 -1 -8 -6 -35 -9 -60 -4 -25 -9 -57 -12 -72 l-6
-28 516 0 515 0 -5 -22 c-2 -13 -7 -43 -10 -68 -3 -25 -7 -52 -9 -60 -3 -8 -7
-33 -10 -55 -4 -22 -19 -121 -35 -220 -16 -99 -32 -202 -36 -230 -3 -27 -8
-52 -9 -55 -2 -3 -6 -26 -10 -50 -3 -25 -10 -72 -15 -105 -5 -33 -12 -78 -15
-100 -3 -22 -8 -46 -10 -53 -3 -9 -64 -12 -259 -12 l-254 0 -7 -42 c-3 -24
-12 -81 -20 -128 -8 -47 -16 -105 -20 -130 -8 -58 -24 -159 -30 -187 l-5 -23
-513 0 -513 0 12 73 c7 39 15 92 18 117 6 42 9 62 21 135 3 17 8 46 11 65 3
19 7 44 9 55 2 11 4 30 4 42 l1 23 517 2 518 3 7 50 c14 89 15 99 31 195 9 52
19 115 22 140 4 25 10 62 15 83 l8 37 -514 0 c-283 0 -514 2 -514 5 0 6 28
196 35 238 3 15 7 39 9 55 3 15 8 47 12 72 4 25 8 52 9 60 1 8 5 35 9 60 4 25
9 56 11 70 2 14 11 68 19 120 8 52 17 113 21 135 3 23 7 50 9 60 2 11 7 43 10
70 13 94 -15 85 271 85 l253 0 5 23 c3 12 23 127 43 255 l38 232 514 0 513 0
-5 -32z m754 -366 c0 -10 -28 -197 -34 -227 -2 -11 -7 -42 -10 -70 -4 -27 -9
-57 -11 -65 -2 -8 -7 -35 -10 -60 -2 -25 -7 -56 -10 -70 -3 -14 -7 -38 -9 -55
-3 -16 -7 -48 -11 -70 -3 -22 -28 -179 -55 -350 -27 -170 -54 -341 -61 -380
-6 -38 -13 -81 -15 -95 -2 -14 -6 -40 -9 -57 l-6 -33 -250 0 c-138 0 -248 3
-245 8 2 4 7 28 11 52 3 25 15 97 25 160 11 63 22 138 26 165 6 48 8 59 18
115 3 14 8 43 11 65 6 42 11 79 20 130 3 17 8 48 10 69 3 21 8 42 10 47 3 4 1
10 -5 14 -5 3 -8 18 -6 33 5 31 13 80 21 137 10 71 17 100 26 105 9 6 13 27
34 165 9 55 18 111 20 125 7 42 18 124 18 138 0 9 57 12 249 12 136 0 248 -4
248 -8z m-705 -474 c-3 -24 -8 -52 -10 -63 -2 -11 -7 -45 -11 -75 -4 -30 -9
-58 -10 -62 -1 -5 -2 -12 -3 -18 0 -5 -14 -10 -31 -10 -34 0 -35 6 -20 91 5
30 11 66 14 82 l5 27 -416 0 c-374 0 -415 2 -409 16 3 9 6 24 6 35 0 18 13 19
446 19 l445 0 -6 -42z"/>
</g>
</svg>
